<svg width="74" height="74" viewBox="0 0 74 74" fill="none" xmlns="http://www.w3.org/2000/svg">
<path d="M10.9266 14.2798C10.7863 14.3692 10.6537 14.4756 10.5288 14.5989L3.79945 21.3283C2.86209 22.2674 2.33219 23.5379 2.3244 24.8648C2.31661 26.1917 2.83155 27.4683 3.75782 28.4184L3.80176 28.4646L4.00988 28.6936L4.81001 29.5585C5.50376 30.3054 6.50045 31.3807 7.7307 32.6896C10.8786 36.0436 14.0616 39.3645 17.279 42.6518C24.605 50.1281 33.4041 58.6821 38.6465 62.2063C44.5503 66.1931 49.9153 68.4385 53.8327 69.6896C55.7937 70.3139 57.3893 70.6932 58.5155 70.9152C59.0737 71.0257 59.6351 71.119 60.199 71.195L60.2799 71.2043C61.8409 71.4517 63.2214 71.4956 64.4494 71.2389C65.658 71.001 66.7673 70.4056 67.6337 69.53L69.2524 67.9113C69.3727 67.791 69.4775 67.6607 69.5669 67.5204C70.2963 66.8584 70.8789 66.0508 71.2772 65.1499C71.6755 64.249 71.8806 63.2746 71.8794 62.2896C71.6089 59.2995 68.7876 57.5721 66.2901 56.0458C65.0324 55.424 63.9101 54.5595 62.9879 53.5021L61.1494 49.2101H61.1656C61.8096 49.2101 62.4272 48.9543 62.8826 48.4989C63.3379 48.0435 63.5937 47.4259 63.5937 46.7819C63.5937 46.138 63.3379 45.5204 62.8826 45.065C62.4272 44.6096 61.8096 44.3538 61.1656 44.3538H59.0682L57.5789 40.8758C58.1045 40.6673 58.5409 40.2819 58.8127 39.7861C59.0845 39.2902 59.1748 38.7151 59.0679 38.1598C58.961 37.6046 58.6637 37.104 58.2272 36.7446C57.7907 36.3851 57.2425 36.1892 56.6771 36.1907H55.5717L54.3414 33.3209C54.9766 33.2933 55.5755 33.0177 56.0097 32.5533C56.4438 32.0889 56.6785 31.4728 56.6634 30.8372C56.6483 30.2017 56.3845 29.5974 55.9287 29.1542C55.4729 28.7111 54.8615 28.4643 54.2258 28.467H52.2625L51.3121 26.247C51.1687 25.9001 51.0808 25.6503 51.0068 25.4376C50.6983 24.4274 50.1231 23.5191 49.3418 22.8083L48.1393 21.6035C47.585 21.0702 46.9145 20.6728 46.1806 20.4426V19.402C44.7353 15.0429 39.4628 13.5236 35.927 16.176L31.006 11.1579C31.4484 10.7114 31.7983 10.1819 32.0354 9.59972C32.2725 9.01758 32.3923 8.39433 32.3877 7.76577C32.3832 7.13721 32.2545 6.51574 32.0091 5.93707C31.7636 5.3584 31.4062 4.83394 30.9574 4.39383C29.6081 3.04905 27.7807 2.29395 25.8757 2.29395C23.9707 2.29395 22.1433 3.04905 20.794 4.39383L10.9266 14.2798ZM32.8074 35.5085L32.8144 33.7857C32.8144 29.8545 31.2881 26.1082 28.5594 23.3101L18.5925 13.1443L24.0616 7.66833C24.3072 7.42174 24.6026 7.23039 24.928 7.10705C25.2535 6.98372 25.6015 6.93125 25.9489 6.95313C26.2962 6.97502 26.6349 7.07077 26.9423 7.23398C27.2497 7.39719 27.5188 7.62411 27.7315 7.89958C26.8452 8.7905 26.3477 9.99605 26.3477 11.2527C26.3477 12.5094 26.8452 13.7149 27.7315 14.6058L37.9759 24.878C38.9012 25.7699 40.1363 26.2682 41.4215 26.2682C42.7067 26.2682 43.9418 25.7699 44.8671 24.878L46.0696 26.0805C46.3501 26.302 46.5493 26.6102 46.6362 26.9569L46.6431 26.98C46.7426 27.2668 46.8651 27.6136 47.0594 28.0646L47.2305 28.467H45.0475C43.7062 28.467 42.6194 29.5538 42.6194 30.8951C42.6254 31.5372 42.8832 32.1513 43.3372 32.6054C43.7913 33.0594 44.4054 33.3172 45.0475 33.3232H49.3117L50.5397 36.1907H48.7244C47.3831 36.1907 46.2962 37.2776 46.2962 38.6188C46.3023 39.2609 46.56 39.875 47.0141 40.3291C47.4682 40.7832 48.0823 41.0409 48.7244 41.0469H52.6209L54.0362 44.3538H51.7769C50.4356 44.3538 49.3487 45.4407 49.3487 46.7819C49.3487 47.4526 49.6262 48.0538 50.0656 48.4932C50.505 48.9326 51.1062 49.1869 51.7769 49.2101H56.1174L58.7375 55.3289C59.9486 57.3613 61.743 58.9824 63.8874 59.9817L63.8944 59.9863C65.0575 60.6963 67.2197 62.0144 67.2775 62.6734C67.2775 62.8029 67.1504 63.1984 66.5722 63.8459C62.6196 63.3527 58.7402 62.3885 55.0167 60.9738C48.2133 58.356 41.181 53.7056 38.5563 45.4777L38.554 45.4731C37.6174 42.5593 35.5061 39.1669 33.0595 35.8461L32.8074 35.5085ZM7.0647 25.1855C7.00741 25.1153 6.97612 25.0275 6.97612 24.9369C6.97612 24.8463 7.00741 24.7585 7.0647 24.6883L12.2331 19.5176C12.6972 19.9724 13.2368 20.5066 13.8519 21.1201C16.4039 23.6725 18.8951 26.2848 21.3236 28.9549C24.1171 32.0305 26.9823 35.3952 29.3387 38.5911C31.7298 41.8355 33.4572 44.7238 34.1533 46.886C34.2604 47.2237 34.3745 47.5591 34.4956 47.8919L7.06932 25.1901L7.0647 25.1855Z" fill="#454545"/>
</svg>
