<svg width="77" height="58" viewBox="0 0 77 58" fill="none" xmlns="http://www.w3.org/2000/svg">
<path d="M47.6107 0.00126964C46.0845 0.0122804 44.5692 0.0866034 42.9688 0.516021C41.2248 0.988554 39.5702 1.74459 38.071 2.75395C35.9645 1.51524 33.924 0.496751 31.9688 0.257268C29.5405 -0.0427734 27.2855 0.119635 24.6647 0.174689C21.5572 0.238 19.5305 1.8263 16.2415 3.09803C12.9552 4.36426 8.723 5.59196 2.75 5.59196H0V32.0865L1.54825 32.86L6.6165 35.3567L24.6647 55.4842L24.75 55.5696C26.8125 57.6121 29.5955 58.1186 32.054 57.9782C34.5153 57.8405 36.8253 57.1193 38.6705 56.0018C42.7323 53.5491 53.7955 45.8499 53.7955 45.8499L54.054 45.6765L54.2272 45.5058C55.5363 44.2038 56.1935 42.6155 56.6335 40.9474L67.2018 35.6127L75.108 32.9481L77 32.3425V5.59196H74.25C69.6271 5.62647 65.0426 4.74909 60.7585 3.00995C57.4695 1.72445 55.473 0.152667 52.3325 0.086603C50.655 0.0535709 49.1343 -0.00974107 47.6107 0.00126964ZM47.6933 5.50663C48.9308 5.49562 50.3607 5.56168 52.1647 5.59196C52.4535 5.60297 55.0962 6.73157 58.7812 8.17397C61.897 9.39891 66.2255 10.4862 71.5 10.8386V28.3869L65.1393 30.5395H64.9688L64.7955 30.6221L56.463 34.8392C56.0207 33.5617 55.3184 32.3901 54.4005 31.3983L54.2272 31.1396L42.5397 16.7761L40.821 14.6235L38.6705 16.3439L31.2812 22.3668C28.8008 24.0872 26.7905 23.5917 24.75 22.6255C24.1588 22.3448 24.1917 22.2594 23.7188 21.9374L36.267 11.5267L36.4375 11.3561C40.1637 7.65647 42.4545 6.37647 44.429 5.85071C45.419 5.58095 46.4585 5.51764 47.6933 5.50663ZM28.534 5.59196C29.4515 5.55471 30.3705 5.58323 31.284 5.67729C32.0045 5.76263 32.8213 6.37647 33.5197 6.62421C33.2393 6.88297 33.0357 7.03161 32.7442 7.31238L32.5737 7.4858L17.534 19.9554L15.213 21.8493L17.2755 23.9991C17.2755 23.9991 19.2638 26.1517 22.3465 27.6134C25.4293 29.0751 30.1895 29.9036 34.463 26.9252L34.6362 26.7518L39.963 22.3668L50.105 34.8392L50.1902 35.0126L50.2755 35.0952C52.0905 36.8927 52.0492 39.7197 50.2755 41.5502C50.2535 41.5695 50.2975 41.6135 50.2755 41.6328C50.2535 41.6465 49.8905 41.8612 49.8465 41.8943L46.2357 36.989L41.767 40.2592L45.2925 44.9883C43.8625 45.9572 43.219 46.4637 41.6817 47.485L37.9885 42.4944L33.517 45.7645L37.0425 50.4936C36.729 50.6863 36.0855 51.1185 35.838 51.2699C34.969 51.7957 33.2915 52.3875 31.7982 52.4728C30.393 52.5499 29.3178 52.2251 28.7925 51.7846L28.7073 51.6993L10.3152 31.313L9.9715 30.8808L5.5 28.6456V10.8386C10.7525 10.4945 15.114 9.45121 18.2188 8.2593C21.8927 6.84993 24.5163 5.6883 24.8353 5.67729L28.534 5.59196Z" fill="#454545"/>
</svg>
