<svg width="50" height="71" viewBox="0 0 50 71" fill="none" xmlns="http://www.w3.org/2000/svg">
<path d="M35.0354 11.0357C35.0354 5.35508 30.4304 0.75 24.7497 0.75C19.0691 0.75 14.464 5.35508 14.464 11.0357V31.6072C14.464 37.2879 19.0691 41.893 24.7497 41.893C30.4304 41.893 35.0354 37.2879 35.0354 31.6072V11.0357Z" fill="#454545" stroke="#454545" stroke-width="1.5"/>
<path d="M0.75 28.1785V31.607C0.75 37.9723 3.27856 44.0768 7.77944 48.5777C12.2803 53.0785 18.3848 55.6071 24.75 55.6071M24.75 55.6071C31.1152 55.6071 37.2197 53.0785 41.7206 48.5777C46.2214 44.0768 48.75 37.9723 48.75 31.607V28.1785M24.75 55.6071V69.3214M24.75 69.3214H14.4643M24.75 69.3214H35.0357" stroke="#454545" stroke-width="1.5" stroke-linecap="round" stroke-linejoin="round"/>
</svg>
