<svg width="25" height="24" viewBox="0 0 25 24" fill="none" xmlns="http://www.w3.org/2000/svg">
<mask id="mask0_21_6" style="mask-type:luminance" maskUnits="userSpaceOnUse" x="1" y="1" width="23" height="22">
<path d="M12.4691 22C13.8339 22.0016 15.1856 21.7437 16.4465 21.2411C17.7074 20.7384 18.8527 20.0009 19.8165 19.071C20.7828 18.1434 21.5491 17.0412 22.0714 15.8278C22.5937 14.6143 22.8617 13.3135 22.86 12C22.8617 10.6866 22.5937 9.38572 22.0714 8.17225C21.5491 6.95878 20.7828 5.85659 19.8165 4.92901C18.8527 3.99909 17.7074 3.26162 16.4465 2.75897C15.1856 2.25631 13.8339 1.99839 12.4691 2.00001C11.1043 1.99839 9.75262 2.25631 8.49172 2.75897C7.23081 3.26162 6.08554 3.99909 5.12169 4.92901C4.15542 5.85659 3.38912 6.95878 2.86682 8.17225C2.34452 9.38572 2.07651 10.6866 2.07819 12C2.07651 13.3135 2.34452 14.6143 2.86682 15.8278C3.38912 17.0412 4.15542 18.1434 5.12169 19.071C6.08554 20.0009 7.23081 20.7384 8.49172 21.2411C9.75262 21.7437 11.1043 22.0016 12.4691 22Z" fill="white" stroke="white" stroke-width="2" stroke-linejoin="round"/>
<path d="M8.31274 12L11.43 15L17.6646 9" stroke="black" stroke-width="2" stroke-linecap="round" stroke-linejoin="round"/>
</mask>
<g mask="url(#mask0_21_6)">
<path d="M0 0H24.9382V24H0V0Z" fill="#FF8B00"/>
</g>
</svg>
