<svg width="35" height="35" viewBox="0 0 35 35" fill="none" xmlns="http://www.w3.org/2000/svg">
<path d="M2.45 2.45C4.63592e-07 4.92333 0 8.87833 0 16.8V18.2C0 26.11 4.63592e-07 30.065 2.45 32.55C4.92333 35 8.87833 35 16.8 35H18.2C26.11 35 30.065 35 32.55 32.55C35 30.0767 35 26.1217 35 18.2V16.8C35 8.89 35 4.935 32.55 2.45C30.0767 4.63592e-07 26.1217 0 18.2 0H16.8C8.89 0 4.935 4.63592e-07 2.45 2.45ZM5.90333 10.6517H9.91667C10.045 17.325 12.985 20.1483 15.3183 20.7317V10.6517H19.0867V16.4033C21.385 16.1583 23.8117 13.5333 24.6283 10.64H28.385C28.0785 12.1376 27.4665 13.556 26.5873 14.8066C25.7081 16.0571 24.5805 17.113 23.275 17.9083C24.7322 18.6334 26.0191 19.6592 27.0508 20.9181C28.0825 22.177 28.8354 23.6404 29.26 25.2117H25.1183C24.2317 22.4467 22.015 20.3 19.0867 20.0083V25.2117H18.62C10.64 25.2117 6.09 19.7517 5.90333 10.6517Z" fill="white"/>
</svg>
