<svg width="45" height="52" viewBox="0 0 45 52" fill="none" xmlns="http://www.w3.org/2000/svg">
<path d="M39.2111 14.0241L42.328 10.4622L38.7661 7.34523L35.6492 10.6836C32.6117 8.43027 29.0545 6.98033 25.3074 6.46818L25.1892 6.45529V4.45185H30.7524V0H14.9506V4.45185H20.5138V6.6767C8.97249 7.73001 0 17.3603 0 29.0886C0 41.5155 10.0731 51.5886 22.5 51.5886C34.9269 51.5886 45 41.5155 45 29.0886C45 23.2846 42.8031 17.9923 39.1939 14.0026L39.2111 14.0241ZM22.7408 45.8512C20.4903 45.8512 18.2619 45.408 16.1828 44.5468C14.1037 43.6856 12.2146 42.4233 10.6233 40.832C9.03198 39.2407 7.7697 37.3516 6.9085 35.2725C6.0473 33.1933 5.60404 30.965 5.60404 28.7145C5.60404 26.4641 6.0473 24.2357 6.9085 22.1566C7.7697 20.0775 9.03198 18.1883 10.6233 16.597C12.2146 15.0058 14.1037 13.7435 16.1828 12.8823C18.2619 12.0211 20.4903 11.5778 22.7408 11.5778C27.3359 11.6088 31.734 13.4483 34.9828 16.6982C36.6059 18.2914 37.8947 20.1926 38.7736 22.2903C39.6524 24.388 40.1037 26.6401 40.101 28.9144V28.9402C39.7292 38.2846 32.1238 45.7309 22.7537 45.8534L22.7408 45.8512Z" fill="#454545"/>
<path d="M20.5161 15.5818H25.1894V32.7185H20.5161V15.5818Z" fill="#454545"/>
</svg>
