<svg width="35" height="28" viewBox="0 0 35 28" fill="none" xmlns="http://www.w3.org/2000/svg">
<path fill-rule="evenodd" clip-rule="evenodd" d="M17.5 0C18.9963 0 20.531 0.0385001 22.0185 0.1015L23.7755 0.1855L25.4573 0.28525L27.0323 0.391999L28.4707 0.503999C30.0321 0.622809 31.5014 1.28876 32.6199 2.38455C33.7384 3.48034 34.4344 4.93568 34.5853 6.49424L34.6553 7.23799L34.7865 8.83048C34.909 10.4807 35 12.2797 35 14C35 15.7202 34.909 17.5192 34.7865 19.1695L34.6553 20.762L34.5853 21.5057C34.4344 23.0645 33.7381 24.5201 32.6193 25.6159C31.5004 26.7118 30.0306 27.3775 28.469 27.496L27.034 27.6062L25.459 27.7147L23.7755 27.8144L22.0185 27.8984C20.5132 27.9637 19.0067 27.9975 17.5 28C15.9933 27.9975 14.4868 27.9637 12.9815 27.8984L11.2245 27.8144L9.54275 27.7147L7.96775 27.6062L6.52925 27.496C4.96792 27.3771 3.4986 26.7112 2.38008 25.6154C1.26155 24.5196 0.565584 23.0643 0.41475 21.5057L0.34475 20.762L0.2135 19.1695C0.0802073 17.4494 0.00899437 15.7251 0 14C0 12.2797 0.091 10.4807 0.2135 8.83048L0.34475 7.23799L0.41475 6.49424C0.565525 4.93596 1.26125 3.48084 2.37941 2.38508C3.49758 1.28933 4.96649 0.623203 6.5275 0.503999L7.96425 0.391999L9.53925 0.28525L11.2227 0.1855L12.9797 0.1015C14.4856 0.0362725 15.9927 0.00243176 17.5 0ZM14 9.75623V18.2437C14 19.0522 14.875 19.5562 15.575 19.1537L22.925 14.91C23.0849 14.8179 23.2178 14.6853 23.3102 14.5256C23.4025 14.3658 23.4512 14.1845 23.4512 14C23.4512 13.8154 23.4025 13.6342 23.3102 13.4744C23.2178 13.3146 23.0849 13.182 22.925 13.09L15.575 8.84798C15.4153 8.7558 15.2342 8.70728 15.0498 8.70731C14.8655 8.70734 14.6843 8.75592 14.5247 8.84815C14.3651 8.94039 14.2325 9.07303 14.1404 9.23275C14.0483 9.39246 13.9999 9.57361 14 9.75798V9.75623Z" fill="white"/>
</svg>
